<svg width="280" height="300" viewBox="0 0 280 300" fill="none" xmlns="http://www.w3.org/2000/svg">
<g clip-path="url(#clip0_313_129)">
<mask id="mask0_313_129" style="mask-type:luminance" maskUnits="userSpaceOnUse" x="0" y="0" width="280" height="300">
<path d="M280 0H0V300H280V0Z" fill="white"/>
</mask>
<g mask="url(#mask0_313_129)">
<path d="M280 0H0V300H280V0Z" fill="#C2FF02"/>
<path d="M12.656 41V18.6H22.352C24.3573 18.6 26.0853 18.9307 27.536 19.592C28.9867 20.232 30.1067 21.16 30.896 22.376C31.6853 23.592 32.08 25.0427 32.08 26.728C32.08 28.392 31.6853 29.832 30.896 31.048C30.1067 32.264 28.9867 33.2027 27.536 33.864C26.0853 34.504 24.3573 34.824 22.352 34.824H15.536L17.84 32.488V41H12.656ZM17.84 33.064L15.536 30.6H22.064C23.664 30.6 24.8587 30.2587 25.648 29.576C26.4373 28.8933 26.832 27.944 26.832 26.728C26.832 25.4907 26.4373 24.5307 25.648 23.848C24.8587 23.1653 23.664 22.824 22.064 22.824H15.536L17.84 20.36V33.064ZM35.781 41V18.6H45.477C47.4823 18.6 49.2103 18.9307 50.661 19.592C52.1117 20.232 53.2317 21.16 54.021 22.376C54.8103 23.592 55.205 25.0427 55.205 26.728C55.205 28.392 54.8103 29.832 54.021 31.048C53.2317 32.2427 52.1117 33.16 50.661 33.8C49.2103 34.44 47.4823 34.76 45.477 34.76H38.661L40.965 32.488V41H35.781ZM50.021 41L44.421 32.872H49.957L55.621 41H50.021ZM40.965 33.064L38.661 30.632H45.189C46.789 30.632 47.9837 30.2907 48.773 29.608C49.5623 28.904 49.957 27.944 49.957 26.728C49.957 25.4907 49.5623 24.5307 48.773 23.848C47.9837 23.1653 46.789 22.824 45.189 22.824H38.661L40.965 20.36V33.064ZM70.1923 41.384C68.4216 41.384 66.7789 41.096 65.2643 40.52C63.7709 39.944 62.4696 39.1333 61.3602 38.088C60.2723 37.0427 59.4189 35.816 58.8003 34.408C58.2029 33 57.9043 31.464 57.9043 29.8C57.9043 28.136 58.2029 26.6 58.8003 25.192C59.4189 23.784 60.2829 22.5573 61.3923 21.512C62.5016 20.4667 63.8029 19.656 65.2963 19.08C66.7896 18.504 68.4109 18.216 70.1603 18.216C71.9309 18.216 73.5522 18.504 75.0243 19.08C76.5176 19.656 77.8083 20.4667 78.8963 21.512C80.0056 22.5573 80.8696 23.784 81.4883 25.192C82.1069 26.5787 82.4163 28.1147 82.4163 29.8C82.4163 31.464 82.1069 33.0107 81.4883 34.44C80.8696 35.848 80.0056 37.0747 78.8963 38.12C77.8083 39.144 76.5176 39.944 75.0243 40.52C73.5522 41.096 71.9416 41.384 70.1923 41.384ZM70.1603 36.968C71.1629 36.968 72.0803 36.7973 72.9123 36.456C73.7656 36.1147 74.5123 35.624 75.1523 34.984C75.7923 34.344 76.2829 33.5867 76.6243 32.712C76.9869 31.8373 77.1683 30.8667 77.1683 29.8C77.1683 28.7333 76.9869 27.7627 76.6243 26.888C76.2829 26.0133 75.7923 25.256 75.1523 24.616C74.5336 23.976 73.7976 23.4853 72.9443 23.144C72.0909 22.8027 71.1629 22.632 70.1603 22.632C69.1576 22.632 68.2296 22.8027 67.3763 23.144C66.5443 23.4853 65.8083 23.976 65.1683 24.616C64.5283 25.256 64.0269 26.0133 63.6643 26.888C63.3229 27.7627 63.1523 28.7333 63.1523 29.8C63.1523 30.8453 63.3229 31.816 63.6643 32.712C64.0269 33.5867 64.5176 34.344 65.1363 34.984C65.7763 35.624 66.5229 36.1147 67.3763 36.456C68.2296 36.7973 69.1576 36.968 70.1603 36.968ZM89.9715 41.384C88.4568 41.384 87.0595 41.1067 85.7795 40.552C84.5208 39.976 83.4862 39.1653 82.6755 38.12L85.5555 34.664C86.1742 35.4747 86.8248 36.0933 87.5075 36.52C88.1902 36.9253 88.9262 37.128 89.7155 37.128C91.8275 37.128 92.8835 35.8907 92.8835 33.416V22.76H85.0115V18.6H98.0355V33.128C98.0355 35.9013 97.3528 37.9707 95.9875 39.336C94.6222 40.7013 92.6168 41.384 89.9715 41.384ZM101.716 41V37.64L115.572 20.936L116.212 22.824H101.972V18.6H120.82V21.96L106.996 38.664L106.356 36.776H121.3V41H101.716ZM129.265 35.88L128.977 29.896L139.697 18.6H145.457L135.793 29L132.913 32.072L129.265 35.88ZM124.625 41V18.6H129.777V41H124.625ZM139.953 41L131.985 31.24L135.377 27.56L146.001 41H139.953ZM163.672 18.6H168.856V41H163.672V18.6ZM153.496 41H148.312V18.6H153.496V41ZM164.056 31.816H153.112V27.432H164.056V31.816ZM174.156 41V18.6H178.444L187.98 34.408H185.708L195.084 18.6H199.34L199.404 41H194.54L194.508 26.056H195.404L187.916 38.632H185.58L177.932 26.056H179.02V41H174.156ZM209.487 27.624H220.271V31.656H209.487V27.624ZM209.871 36.84H222.062V41H204.719V18.6H221.647V22.76H209.871V36.84ZM236.786 41.256C235.932 41.256 235.196 40.968 234.578 40.392C233.98 39.7947 233.682 39.0373 233.682 38.12C233.682 37.2027 233.98 36.4667 234.578 35.912C235.196 35.336 235.932 35.048 236.786 35.048C237.66 35.048 238.396 35.336 238.994 35.912C239.591 36.4667 239.89 37.2027 239.89 38.12C239.89 39.0373 239.591 39.7947 238.994 40.392C238.396 40.968 237.66 41.256 236.786 41.256Z" fill="#171717"/>
</g>
</g>
<defs>
<clipPath id="clip0_313_129">
<rect width="280" height="300" fill="white"/>
</clipPath>
</defs>
</svg>
